<?xml version="1.0" encoding="UTF-8" standalone="no"?>
<svg
   xmlns:dc="http://purl.org/dc/elements/1.1/"
   xmlns:cc="http://creativecommons.org/ns#"
   xmlns:rdf="http://www.w3.org/1999/02/22-rdf-syntax-ns#"
   xmlns:svg="http://www.w3.org/2000/svg"
   xmlns="http://www.w3.org/2000/svg"
   xmlns:sodipodi="http://sodipodi.sourceforge.net/DTD/sodipodi-0.dtd"
   xmlns:inkscape="http://www.inkscape.org/namespaces/inkscape"
   width="64"
   height="64"
   version="1.1"
   id="svg85"
   sodipodi:docname="vesta.svg.svg"
   inkscape:version="0.92.5 (2060ec1f9f, 2020-04-08)">
  <sodipodi:namedview
     pagecolor="#ffffff"
     bordercolor="#666666"
     borderopacity="1"
     objecttolerance="10"
     gridtolerance="10"
     guidetolerance="10"
     inkscape:pageopacity="0"
     inkscape:pageshadow="2"
     inkscape:window-width="1904"
     inkscape:window-height="1027"
     id="namedview87"
     showgrid="false"
     inkscape:zoom="7.2806686"
     inkscape:cx="43.769739"
     inkscape:cy="33.003207"
     inkscape:window-x="8"
     inkscape:window-y="8"
     inkscape:window-maximized="0"
     inkscape:current-layer="svg85" />
  <metadata
     id="metadata2">
    <rdf:RDF>
      <cc:Work
         rdf:about="">
        <dc:format>image/svg+xml</dc:format>
        <dc:type
           rdf:resource="http://purl.org/dc/dcmitype/StillImage" />
        <dc:title></dc:title>
      </cc:Work>
    </rdf:RDF>
  </metadata>
  <defs
     id="defs25">
    <style
       type="text/css"
       id="style4" />
    <style
       type="text/css"
       id="style6" />
    <style
       type="text/css"
       id="style8" />
    <style
       type="text/css"
       id="style10" />
    <style
       type="text/css"
       id="style12" />
    <linearGradient
       id="linearGradient938"
       x1="80.368"
       x2="82.141"
       y1="13.177"
       y2="14.704"
       gradientTransform="matrix(3.6342 0 0 3.6342 -246.71 -6.3936)"
       gradientUnits="userSpaceOnUse">
      <stop
         stop-color="#fafafa"
         offset="0"
         id="stop14" />
      <stop
         stop-color="#90a0b3"
         offset="1"
         id="stop16" />
    </linearGradient>
    <filter
       id="filter1066"
       x="-.063923"
       y="-.056531"
       width="1.1278"
       height="1.1131"
       color-interpolation-filters="sRGB">
      <feGaussianBlur
         stdDeviation="0.22705935"
         id="feGaussianBlur19" />
    </filter>
    <filter
       id="filter1100"
       x="-.12197"
       y="-.11848"
       width="1.2439"
       height="1.237"
       color-interpolation-filters="sRGB">
      <feGaussianBlur
         stdDeviation="0.47586465"
         id="feGaussianBlur22" />
    </filter>
  </defs>
  <g
     transform="matrix(3.7796 0 0 3.7796 86.509 6.5083)"
     fill="#5e4aa6"
     stroke-width=".26458"
     id="g57">
    <g
       transform="translate(-.0272 .0065001)"
       id="g35">
      <circle
         cx="-330.35"
         cy="-328.38"
         r="0"
         id="circle27" />
      <circle
         cx="-312.11"
         cy="-326.25"
         r="0"
         id="circle29" />
      <circle
         cx="-306.02"
         cy="-333.07"
         r="0"
         id="circle31" />
      <circle
         cx="-308.84"
         cy="-326.01"
         r="0"
         id="circle33" />
    </g>
    <g
       transform="translate(-.0272 .0065001)"
       id="g45">
      <circle
         cx="-330.35"
         cy="-328.38"
         r="0"
         id="circle37" />
      <circle
         cx="-312.11"
         cy="-326.25"
         r="0"
         id="circle39" />
      <circle
         cx="-306.02"
         cy="-333.07"
         r="0"
         id="circle41" />
      <circle
         cx="-308.84"
         cy="-326.01"
         r="0"
         id="circle43" />
    </g>
    <g
       transform="translate(-.02705 .0064503)"
       id="g55">
      <circle
         cx="-330.35"
         cy="-328.38"
         r="0"
         id="circle47" />
      <circle
         cx="-312.11"
         cy="-326.25"
         r="0"
         id="circle49" />
      <circle
         cx="-306.02"
         cy="-333.07"
         r="0"
         id="circle51" />
      <circle
         cx="-308.84"
         cy="-326.01"
         r="0"
         id="circle53" />
    </g>
  </g>
  <style
     type="text/css"
     id="style59">.st0{opacity:0.15;fill:#45413C;}
	.st1{fill:#FFE500;}
	.st2{fill:#EBCB00;}
	.st3{fill:none;stroke:#45413C;stroke-linecap:round;stroke-linejoin:round;stroke-miterlimit:10;}
	.st4{fill:#FFAA54;}
	.st5{fill:#FF8A14;}
	.st6{fill:#FFB0CA;stroke:#45413C;stroke-linecap:round;stroke-linejoin:round;stroke-miterlimit:10;}
	.st7{fill:#FF87AF;stroke:#45413C;stroke-linecap:round;stroke-linejoin:round;stroke-miterlimit:10;}
	.st8{fill:#FFCC99;}
	.st9{fill:#FFFFFF;}
	.st10{fill:#F0F0F0;}
	.st11{fill:#BF8256;}
	.st12{fill:#915E3A;}
	.st13{fill:#DEA47A;}
	.st14{fill:#F0D5A8;}
	.st15{fill:#DEBB7E;}
	.st16{fill:#F7E5C6;}
	.st17{fill:#FF8A14;stroke:#45413C;stroke-linecap:round;stroke-linejoin:round;stroke-miterlimit:10;}
	.st18{fill:#FFF5E3;}
	.st19{fill:#FFF48C;}
	.st20{fill:#FFFACF;}
	.st21{fill:#FFFCE5;}
	.st22{fill:#FF87AF;}
	.st23{fill:#FFB0CA;}
	.st24{fill:#FFE500;stroke:#45413C;stroke-linecap:round;stroke-linejoin:round;stroke-miterlimit:10;}
	.st25{fill:#9CEB60;stroke:#45413C;stroke-linecap:round;stroke-linejoin:round;stroke-miterlimit:10;}
	.st26{fill:#FFFACF;stroke:#45413C;stroke-linecap:round;stroke-linejoin:round;stroke-miterlimit:10;}
	.st27{fill:#00F5BC;stroke:#45413C;stroke-linecap:round;stroke-linejoin:round;stroke-miterlimit:10;}
	.st28{fill:#BF8256;stroke:#45413C;stroke-linecap:round;stroke-linejoin:round;stroke-miterlimit:10;}
	.st29{fill:#FFE3CF;stroke:#45413C;stroke-linecap:round;stroke-linejoin:round;stroke-miterlimit:10;}
	.st30{fill:#FF6242;}
	.st31{fill:#FF866E;}
	.st32{fill:none;stroke:#E04122;stroke-linecap:round;stroke-linejoin:round;stroke-miterlimit:10;}
	.st33{fill:#FFFEF2;stroke:#45413C;stroke-linecap:round;stroke-linejoin:round;stroke-miterlimit:10;}
	.st34{fill:#FF6242;stroke:#45413C;stroke-linecap:round;stroke-linejoin:round;stroke-miterlimit:10;}
	.st35{fill:#FFA694;}
	.st36{fill:#FFFFFF;stroke:#45413C;stroke-linecap:round;stroke-linejoin:round;stroke-miterlimit:10;}
	.st37{fill:#FFFEF2;}
	.st38{fill:#FF6196;}
	.st39{fill:#B89558;}
	.st40{fill:none;stroke:#915E3A;stroke-linecap:round;stroke-linejoin:round;stroke-miterlimit:10;}
	.st41{fill:#DEBB7E;stroke:#45413C;stroke-linecap:round;stroke-linejoin:round;stroke-miterlimit:10;}
	.st42{fill:#6DD627;stroke:#45413C;stroke-linecap:round;stroke-linejoin:round;stroke-miterlimit:10;}
	.st43{fill:#E5F8FF;}
	.st44{fill:#E8F4FA;}
	.st45{fill:#E8F4FA;stroke:#45413C;stroke-linecap:round;stroke-linejoin:round;stroke-miterlimit:10;}
	.st46{fill:#FFCCDD;}
	.st47{fill:#E5F8FF;stroke:#45413C;stroke-linecap:round;stroke-linejoin:round;stroke-miterlimit:10;}
	.st48{fill:#00B8F0;stroke:#45413C;stroke-linecap:round;stroke-linejoin:round;stroke-miterlimit:10;}
	.st49{fill:#00B8F0;}
	.st50{fill:#4ACFFF;}
	.st51{fill:#E04122;}
	.st52{fill:#E04122;stroke:#45413C;stroke-linecap:round;stroke-linejoin:round;stroke-miterlimit:10;}
	.st53{fill:#87898C;}
	.st54{fill:#BDBEC0;}
	.st55{fill:#656769;}
	.st56{fill:#525252;}
	.st57{fill:#FFF48C;stroke:#45413C;stroke-linecap:round;stroke-linejoin:round;stroke-miterlimit:10;}
	.st58{fill:#6DD627;}
	.st59{fill:#EB6D00;}
	.st60{fill:#46B000;}
	.st61{fill:#80DDFF;}
	.st62{fill:#DAEDF7;}
	.st63{fill:#BF8DF2;stroke:#45413C;stroke-linecap:round;stroke-linejoin:round;stroke-miterlimit:10;}
	.st64{fill:#9F5AE5;stroke:#45413C;stroke-linecap:round;stroke-linejoin:round;stroke-miterlimit:10;}
	.st65{fill:#C8FFA1;}
	.st66{fill:#E4FFD1;}
	.st67{fill:#9CEB60;}
	.st68{fill:#E5FEFF;}
	.st69{fill:#B8ECFF;}
	.st70{fill:#E0E0E0;stroke:#45413C;stroke-linecap:round;stroke-linejoin:round;stroke-miterlimit:10;}
	.st71{fill:#E0E0E0;}
	.st72{fill:none;stroke:#4F4B45;stroke-linejoin:round;stroke-miterlimit:10;}
	.st73{fill:none;stroke:#4F4B45;stroke-linecap:round;stroke-linejoin:round;stroke-miterlimit:10;}
	.st74{fill:#E0366F;stroke:#45413C;stroke-linecap:round;stroke-linejoin:round;stroke-miterlimit:10;}
	.st75{fill:none;stroke:#45413C;stroke-miterlimit:10;}
	.st76{fill:#FF866E;stroke:#45413C;stroke-linecap:round;stroke-linejoin:round;stroke-miterlimit:10;}
	.st77{fill:#45413C;stroke:#45413C;stroke-linecap:round;stroke-linejoin:round;stroke-miterlimit:10;}
	.st78{fill:#9F5AE5;}
	.st79{fill:#803EC2;}
	.st80{fill:#803EC2;stroke:#45413C;stroke-linecap:round;stroke-linejoin:round;stroke-miterlimit:10;}
	.st81{fill:#BF8DF2;}
	.st82{fill:#FFAA54;stroke:#45413C;stroke-linecap:round;stroke-linejoin:round;stroke-miterlimit:10;}
	.st83{fill:none;stroke:#45413C;stroke-linejoin:round;stroke-miterlimit:10;}
	.st84{fill:#FFCCDD;stroke:#45413C;stroke-linecap:round;stroke-linejoin:round;stroke-miterlimit:10;}
	.st85{fill:#FF6196;stroke:#45413C;stroke-linecap:round;stroke-linejoin:round;stroke-miterlimit:10;}
	.st86{fill:#FFE5EE;}
	.st87{fill:#F7E5C6;stroke:#45413C;stroke-linecap:round;stroke-linejoin:round;stroke-miterlimit:10;}
	.st88{fill:#E5FFF9;}
	.st89{fill:none;stroke:#45413C;stroke-width:1.0064;stroke-linecap:round;stroke-linejoin:round;stroke-miterlimit:10;}
	.st90{fill:#4AEFF7;}
	.st91{fill:#A6FBFF;}
	.st92{fill:#E5FEFF;stroke:#45413C;stroke-linecap:round;stroke-linejoin:round;stroke-miterlimit:10;}
	.st93{fill:#46B000;stroke:#45413C;stroke-linecap:round;stroke-linejoin:round;stroke-miterlimit:10;}
	.st94{fill:#FFFFFF;stroke:#45413C;stroke-linejoin:round;stroke-miterlimit:10;}
	.st95{fill:#FFFFFF;stroke:#45413C;stroke-miterlimit:10;}
	.st96{fill:#009FD9;}
	.st97{fill:#00DFEB;}
	.st98{fill:#C0DCEB;stroke:#45413C;stroke-linecap:round;stroke-linejoin:round;stroke-miterlimit:10;}
	.st99{fill:#00DFEB;stroke:#45413C;stroke-linecap:round;stroke-linejoin:round;stroke-miterlimit:10;}
	.st100{fill:#FFE5EE;stroke:#45413C;stroke-linecap:round;stroke-linejoin:round;stroke-miterlimit:10;}
	.st101{fill:#8CA4B8;}
	.st102{fill:#ADC4D9;}
	.st103{fill:#656769;stroke:#45413C;stroke-linecap:round;stroke-linejoin:round;stroke-miterlimit:10;}
	.st104{fill:#F0F0F0;stroke:#45413C;stroke-linecap:round;stroke-linejoin:round;stroke-miterlimit:10;}
	.st105{fill:#C0DCEB;}
	.st106{fill:#45413C;}
	.st107{fill:#FFCABF;}
	.st108{fill:#87898C;stroke:#45413C;stroke-linecap:round;stroke-linejoin:round;stroke-miterlimit:10;}
	.st109{fill:#EBCB00;stroke:#45413C;stroke-linecap:round;stroke-linejoin:round;stroke-miterlimit:10;}</style>
  <circle
     cx="-1248.7"
     cy="-1241.6"
     r="0"
     fill="#5e4aa6"
     id="circle61" />
  <g
     transform="matrix(3.7796 0 0 3.7796 -5.9149e-5 -2.9142e-5)"
     fill="#5e4aa6"
     stroke-width=".26458"
     id="g69">
    <circle
       cx="-330.38"
       cy="-328.5"
       r="0"
       id="circle63" />
    <circle
       cx="-39.462"
       cy="6.3115"
       r="0"
       fill-rule="evenodd"
       id="circle65" />
    <circle
       cx="-330.38"
       cy="-328.5"
       r="0"
       image-rendering="optimizeSpeed"
       id="circle67" />
  </g>
  <rect
     transform="rotate(-6.4422)"
     x="1.6533"
     y="7.9432"
     width="52.884"
     height="52.884"
     ry="4.4112"
     fill="#f3f3f3"
     stroke-width="3.6342"
     id="rect71" />
  <path
     transform="matrix(3.9047 0 0 3.6648 -168.12 -11.586)"
     d="m57.818 9.8288s0.05354 3.0782-2.6636 4.5408c-2.2449 1.2084 0.9386 2.689-5.8599 5.0989 8.8505-2.5748 8.5235-9.6396 8.5235-9.6396z"
     fill="#141414"
     filter="url(#filter1066)"
     opacity=".3"
     id="path73" />
  <path
     transform="matrix(3.1593 0 0 3.4556 -127.22 -11.477)"
     d="m57.594 9.7322c-0.15355 5.725-5.0519 8.6864-8.5234 9.6397l8.2859-0.93608c0.6682-0.07545 1.1451-0.67434 1.0697-1.3425z"
     fill="#9cb8d7"
     filter="url(#filter1100)"
     opacity=".2"
     id="path75" />
  <path
     transform="matrix(3.794 0 0 3.5353 -161.57 -9.8822)"
     d="m57.818 9.8288s0.05354 3.0782-2.6636 4.5408c-2.2449 1.2084 0.9386 2.689-5.8599 5.0989 8.8505-2.5748 8.5235-9.6396 8.5235-9.6396z"
     fill="#141414"
     filter="url(#filter1066)"
     opacity=".3"
     id="path77" />
  <path
     d="m51.629 2.2567c-0.29243-0.025913-0.59226-0.023006-0.8958 0.011267l-43.787 4.9449c-2.4284 0.2742-4.1632 2.4488-3.8892 4.8772l4.9449 43.787c0.2742 2.4284 2.4488 4.1617 4.8772 3.8877l13.693-1.5456c12.616-3.4698 30.399-14.233 30.957-35.029l3.0236 26.752-4.943-43.787c-0.23993-2.1248-1.9362-3.7193-3.9829-3.9005z"
     fill="#fafafa"
     stroke-width="3.6342"
     id="path79" />
  <path
     d="m57.525 23.062s0.19457 11.187-9.6803 16.502c-8.1586 4.3915 3.4111 9.7725-21.296 18.531 32.165-9.3575 31.232-34.905 31.232-34.905z"
     fill="url(#linearGradient938)"
     stroke-width="3.6342"
     id="path81" />
  <path
     inkscape:connector-curvature="0"
     d="m 44.340505,31.273644 -0.375,-5.625"
     style="clip-rule:evenodd;fill:none;fill-rule:evenodd;stroke:#86a1ff;stroke-width:0.74000001px"
     id="path4" />
  <path
     inkscape:connector-curvature="0"
     d="m 40.215505,34.648644 3.75,-9"
     style="clip-rule:evenodd;fill:none;fill-rule:evenodd;stroke:#86a1ff;stroke-width:0.38px"
     id="path6" />
  <path
     inkscape:connector-curvature="0"
     d="m 40.590505,41.023644 -0.375,-6.375"
     style="clip-rule:evenodd;fill:none;fill-rule:evenodd;stroke:#86a1ff;stroke-width:0.38px"
     id="path8" />
  <path
     inkscape:connector-curvature="0"
     d="m 34.215505,39.898644 6.375,1.125"
     style="clip-rule:evenodd;fill:none;fill-rule:evenodd;stroke:#86a1ff;stroke-width:0.38px"
     id="path10" />
  <path
     inkscape:connector-curvature="0"
     d="m 30.095505,44.670644 -4.88,-2.522"
     style="clip-rule:evenodd;fill:none;fill-rule:evenodd;stroke:#86a1ff;stroke-width:0.74000001px"
     id="path12" />
  <path
     inkscape:connector-curvature="0"
     d="m 25.215505,42.148644 9,-2.25"
     style="clip-rule:evenodd;fill:none;fill-rule:evenodd;stroke:#86a1ff;stroke-width:0.38px"
     id="path14" />
  <path
     inkscape:connector-curvature="0"
     d="m 21.104505,35.110644 3.361,-6.462"
     style="clip-rule:evenodd;fill:none;fill-rule:evenodd;stroke:#86a1ff;stroke-width:0.38px"
     id="path16" />
  <path
     inkscape:connector-curvature="0"
     d="m 19.615505,25.188644 3.545,-2.315"
     style="clip-rule:evenodd;fill:none;fill-rule:evenodd;stroke:#86a1ff;stroke-width:0.74000001px"
     id="path18" />
  <path
     inkscape:connector-curvature="0"
     d="m 23.160505,22.873644 4.68,-5.85"
     style="clip-rule:evenodd;fill:none;fill-rule:evenodd;stroke:#86a1ff;stroke-width:0.74000001px"
     id="path20" />
  <path
     inkscape:connector-curvature="0"
     d="m 30.465505,24.148644 6.525,-3.6"
     style="clip-rule:evenodd;fill:none;fill-rule:evenodd;stroke:#86a1ff;stroke-width:0.38px"
     id="path22" />
  <path
     inkscape:connector-curvature="0"
     d="m 27.736505,17.223644 -3.271,11.425"
     style="clip-rule:evenodd;fill:none;fill-rule:evenodd;stroke:#86a1ff;stroke-width:0.38px"
     id="path24" />
  <path
     inkscape:connector-curvature="0"
     d="m 19.615505,25.188644 10.85,-1.04"
     style="clip-rule:evenodd;fill:none;fill-rule:evenodd;stroke:#86a1ff;stroke-width:0.38px"
     id="path26" />
  <path
     inkscape:connector-curvature="0"
     d="m 37.054505,20.583644 -3.589,14.065"
     style="clip-rule:evenodd;fill:none;fill-rule:evenodd;stroke:#d1dbff;stroke-width:1.49000001px"
     id="path28" />
  <path
     inkscape:connector-curvature="0"
     d="m 36.662505,20.796644 -13.502,2.077"
     style="clip-rule:evenodd;fill:none;fill-rule:evenodd;stroke:#d1dbff;stroke-width:1.49000001px"
     id="path30" />
  <path
     inkscape:connector-curvature="0"
     d="m 33.465505,34.648644 -10.305,-11.775"
     style="clip-rule:evenodd;fill:none;fill-rule:evenodd;stroke:#d1dbff;stroke-width:1.49000001px"
     id="path32" />
  <path
     inkscape:connector-curvature="0"
     d="m 33.465505,34.648644 -3.37,10.022"
     style="clip-rule:evenodd;fill:none;fill-rule:evenodd;stroke:#d1dbff;stroke-width:1.12px"
     id="path34" />
  <path
     inkscape:connector-curvature="0"
     d="m 20.897505,35.375644 2.453,-13.23"
     style="clip-rule:evenodd;fill:none;fill-rule:evenodd;stroke:#d1dbff;stroke-width:1.12px"
     id="path36" />
  <path
     inkscape:connector-curvature="0"
     d="m 30.095505,44.670644 -8.991,-9.56"
     style="clip-rule:evenodd;fill:none;fill-rule:evenodd;stroke:#d1dbff;stroke-width:1.12px"
     id="path38" />
  <path
     inkscape:connector-curvature="0"
     d="m 40.590505,41.023644 -10.495,3.647"
     style="clip-rule:evenodd;fill:none;fill-rule:evenodd;stroke:#d1dbff;stroke-width:1.12px"
     id="path40" />
  <path
     inkscape:connector-curvature="0"
     d="m 44.340505,31.273644 -3.75,9.75"
     style="clip-rule:evenodd;fill:none;fill-rule:evenodd;stroke:#d1dbff;stroke-width:1.12px"
     id="path42" />
  <path
     inkscape:connector-curvature="0"
     d="m 33.465505,34.648644 10.875,-3.375"
     style="clip-rule:evenodd;fill:none;fill-rule:evenodd;stroke:#d1dbff;stroke-width:1.12px"
     id="path44" />
  <path
     inkscape:connector-curvature="0"
     d="m 37.065505,20.548644 7.275,10.725"
     style="clip-rule:evenodd;fill:none;fill-rule:evenodd;stroke:#d1dbff;stroke-width:1.12px"
     id="path46" />
  <path
     inkscape:connector-curvature="0"
     d="m 21.104505,35.110644 12.361,-0.462"
     style="clip-rule:evenodd;fill:none;fill-rule:evenodd;stroke:#d1dbff;stroke-width:1.12px"
     id="path48" />
  <path
     inkscape:connector-curvature="0"
     d="m 18.402505,34.740644 6.813,7.408"
     style="clip-rule:evenodd;fill:none;fill-rule:evenodd;stroke:#86a1ff;stroke-width:0.74000001px"
     id="path50" />
  <path
     inkscape:connector-curvature="0"
     d="m 19.105505,25.036644 -0.499,9.703"
     style="clip-rule:evenodd;fill:none;fill-rule:evenodd;stroke:#86a1ff;stroke-width:0.74000001px"
     id="path52" />
  <path
     inkscape:connector-curvature="0"
     d="m 27.840505,17.023644 9.375,1.125"
     style="clip-rule:evenodd;fill:none;fill-rule:evenodd;stroke:#86a1ff;stroke-width:0.74000001px"
     id="path54" />
  <path
     inkscape:connector-curvature="0"
     d="m 43.965505,25.648644 -6.75,-7.5"
     style="clip-rule:evenodd;fill:none;fill-rule:evenodd;stroke:#86a1ff;stroke-width:0.74000001px"
     id="path56" />
  <path
     inkscape:connector-curvature="0"
     d="m 36.735505,20.558644 0.588,-2.891"
     style="clip-rule:evenodd;fill:none;fill-rule:evenodd;stroke:#86a1ff;stroke-width:0.74000001px"
     id="path58" />
  <path
     inkscape:connector-curvature="0"
     d="m 21.104505,35.110644 -2.702,-0.37"
     style="clip-rule:evenodd;fill:none;fill-rule:evenodd;stroke:#86a1ff;stroke-width:0.74000001px"
     id="path60" />
  <path
     inkscape:connector-curvature="0"
     d="m 27.840505,15.898644 c -0.617,0 -1.125,0.508 -1.125,1.125 0,0.617 0.508,1.125 1.125,1.125 0.617,0 1.125,-0.508 1.125,-1.125 0,-0.617 -0.508,-1.125 -1.125,-1.125 z m 9.375,1.5 c -0.412,0 -0.75,0.338 -0.75,0.75 0,0.412 0.338,0.75 0.75,0.75 0.412,0 0.75,-0.338 0.75,-0.75 0,-0.412 -0.338,-0.75 -0.75,-0.75 z m -0.188,1.875 c -0.72,0 -1.312,0.592 -1.312,1.313 0,0.72 0.593,1.312 1.313,1.312 0.72,0 1.312,-0.592 1.312,-1.313 0,-0.72 -0.593,-1.312 -1.313,-1.312 z m -13.875,2.25 c -0.72,0 -1.312,0.592 -1.312,1.313 0,0.719 0.592,1.312 1.312,1.312 0.72,0 1.313,-0.593 1.313,-1.313 0,-0.72 -0.592,-1.312 -1.313,-1.312 z m 7.313,1.875 c -0.412,0 -0.75,0.338 -0.75,0.75 0,0.412 0.338,0.75 0.75,0.75 0.412,0 0.75,-0.338 0.75,-0.75 0,-0.412 -0.338,-0.75 -0.75,-0.75 z m -10.875,0.75 c -0.617,0 -1.125,0.508 -1.125,1.125 0,0.617 0.508,1.125 1.125,1.125 0.617,0 1.125,-0.508 1.125,-1.125 0,-0.617 -0.508,-1.125 -1.125,-1.125 z m 24.375,0.75 c -0.412,0 -0.75,0.338 -0.75,0.75 0,0.412 0.338,0.75 0.75,0.75 0.412,0 0.75,-0.338 0.75,-0.75 0,-0.412 -0.338,-0.75 -0.75,-0.75 z m -19.5,3 c -0.412,0 -0.75,0.338 -0.75,0.75 0,0.412 0.338,0.75 0.75,0.75 0.412,0 0.75,-0.338 0.75,-0.75 0,-0.412 -0.338,-0.75 -0.75,-0.75 z m 19.875,2.25 c -0.617,0 -1.125,0.508 -1.125,1.125 0,0.617 0.508,1.125 1.125,1.125 0.617,0 1.125,-0.508 1.125,-1.125 0,-0.617 -0.508,-1.125 -1.125,-1.125 z m -10.875,3 c -0.823,0 -1.5,0.677 -1.5,1.5 0,0.823 0.677,1.5 1.5,1.5 0.823,0 1.5,-0.677 1.5,-1.5 0,-0.823 -0.677,-1.5 -1.5,-1.5 z m -15,0.75 c -0.412,0 -0.75,0.338 -0.75,0.75 0,0.412 0.338,0.75 0.75,0.75 0.412,0 0.75,-0.338 0.75,-0.75 0,-0.412 -0.338,-0.75 -0.75,-0.75 z m 2.625,0 c -0.617,0 -1.125,0.508 -1.125,1.125 0,0.617 0.508,1.125 1.125,1.125 0.617,0 1.125,-0.508 1.125,-1.125 0,-0.617 -0.508,-1.125 -1.125,-1.125 z m 19.125,0 c -0.412,0 -0.75,0.338 -0.75,0.75 0,0.412 0.338,0.75 0.75,0.75 0.412,0 0.75,-0.338 0.75,-0.75 0,-0.412 -0.338,-0.75 -0.75,-0.75 z m -6,5.25 c -0.412,0 -0.75,0.338 -0.75,0.75 0,0.412 0.338,0.75 0.75,0.75 0.412,0 0.75,-0.338 0.75,-0.75 0,-0.412 -0.338,-0.75 -0.75,-0.75 z m 6.375,0.75 c -0.617,0 -1.125,0.508 -1.125,1.125 0,0.617 0.508,1.125 1.125,1.125 0.617,0 1.125,-0.508 1.125,-1.125 0,-0.617 -0.508,-1.125 -1.125,-1.125 z m -15.375,1.5 c -0.412,0 -0.75,0.338 -0.75,0.75 0,0.412 0.338,0.75 0.75,0.75 0.412,0 0.75,-0.338 0.75,-0.75 0,-0.412 -0.338,-0.75 -0.75,-0.75 z m 4.875,2.25 c -0.617,0 -1.125,0.508 -1.125,1.125 0,0.617 0.508,1.125 1.125,1.125 0.617,0 1.125,-0.508 1.125,-1.125 0,-0.617 -0.508,-1.125 -1.125,-1.125 z"
     style="clip-rule:evenodd;fill:#3f3688;fill-opacity:1;fill-rule:nonzero"
     id="path62" />
</svg>
