<?xml version="1.0" encoding="UTF-8" standalone="no"?>
<svg
   xmlns:dc="http://purl.org/dc/elements/1.1/"
   xmlns:cc="http://creativecommons.org/ns#"
   xmlns:rdf="http://www.w3.org/1999/02/22-rdf-syntax-ns#"
   xmlns:svg="http://www.w3.org/2000/svg"
   xmlns="http://www.w3.org/2000/svg"
   xmlns:sodipodi="http://sodipodi.sourceforge.net/DTD/sodipodi-0.dtd"
   xmlns:inkscape="http://www.inkscape.org/namespaces/inkscape"
   width="64"
   height="64"
   version="1.1"
   id="svg85"
   sodipodi:docname="vesta.svg"
   inkscape:version="0.92.5 (2060ec1f9f, 2020-04-08)">
  <sodipodi:namedview
     pagecolor="#ffffff"
     bordercolor="#666666"
     borderopacity="1"
     objecttolerance="10"
     gridtolerance="10"
     guidetolerance="10"
     inkscape:pageopacity="0"
     inkscape:pageshadow="2"
     inkscape:window-width="1904"
     inkscape:window-height="999"
     id="namedview87"
     showgrid="false"
     inkscape:zoom="7.2806686"
     inkscape:cx="19.046735"
     inkscape:cy="33.003207"
     inkscape:window-x="8"
     inkscape:window-y="36"
     inkscape:window-maximized="0"
     inkscape:current-layer="svg85" />
  <metadata
     id="metadata2">
    <rdf:RDF>
      <cc:Work
         rdf:about="">
        <dc:format>image/svg+xml</dc:format>
        <dc:type
           rdf:resource="http://purl.org/dc/dcmitype/StillImage" />
        <dc:title />
      </cc:Work>
    </rdf:RDF>
  </metadata>
  <defs
     id="defs25">
    <style
       type="text/css"
       id="style4" />
    <style
       type="text/css"
       id="style6" />
    <style
       type="text/css"
       id="style8" />
    <style
       type="text/css"
       id="style10" />
    <style
       type="text/css"
       id="style12" />
    <linearGradient
       id="linearGradient938"
       x1="80.368"
       x2="82.141"
       y1="13.177"
       y2="14.704"
       gradientTransform="matrix(3.6342 0 0 3.6342 -246.71 -6.3936)"
       gradientUnits="userSpaceOnUse">
      <stop
         stop-color="#fafafa"
         offset="0"
         id="stop14" />
      <stop
         stop-color="#90a0b3"
         offset="1"
         id="stop16" />
    </linearGradient>
    <filter
       id="filter1066"
       x="-.063923"
       y="-.056531"
       width="1.1278"
       height="1.1131"
       color-interpolation-filters="sRGB">
      <feGaussianBlur
         stdDeviation="0.22705935"
         id="feGaussianBlur19" />
    </filter>
    <filter
       id="filter1100"
       x="-.12197"
       y="-.11848"
       width="1.2439"
       height="1.237"
       color-interpolation-filters="sRGB">
      <feGaussianBlur
         stdDeviation="0.47586465"
         id="feGaussianBlur22" />
    </filter>
  </defs>
  <g
     transform="matrix(7.4827141,0,0,7.4827141,140.31614,-15.602919)"
     id="g57"
     style="fill:#5e4aa6;stroke-width:0.26458001">
    <g
       transform="translate(-0.0272,0.0065001)"
       id="g35">
      <circle
         cx="-330.35001"
         cy="-328.38"
         r="0"
         id="circle27" />
      <circle
         cx="-312.10999"
         cy="-326.25"
         r="0"
         id="circle29" />
      <circle
         cx="-306.01999"
         cy="-333.07001"
         r="0"
         id="circle31" />
      <circle
         cx="-308.84"
         cy="-326.01001"
         r="0"
         id="circle33" />
    </g>
    <g
       transform="translate(-0.0272,0.0065001)"
       id="g45">
      <circle
         cx="-330.35001"
         cy="-328.38"
         r="0"
         id="circle37" />
      <circle
         cx="-312.10999"
         cy="-326.25"
         r="0"
         id="circle39" />
      <circle
         cx="-306.01999"
         cy="-333.07001"
         r="0"
         id="circle41" />
      <circle
         cx="-308.84"
         cy="-326.01001"
         r="0"
         id="circle43" />
    </g>
    <g
       transform="translate(-0.02705,0.0064503)"
       id="g55">
      <circle
         cx="-330.35001"
         cy="-328.38"
         r="0"
         id="circle47" />
      <circle
         cx="-312.10999"
         cy="-326.25"
         r="0"
         id="circle49" />
      <circle
         cx="-306.01999"
         cy="-333.07001"
         r="0"
         id="circle51" />
      <circle
         cx="-308.84"
         cy="-326.01001"
         r="0"
         id="circle53" />
    </g>
  </g>
  <style
     type="text/css"
     id="style59">.st0{opacity:0.15;fill:#45413C;}
	.st1{fill:#FFE500;}
	.st2{fill:#EBCB00;}
	.st3{fill:none;stroke:#45413C;stroke-linecap:round;stroke-linejoin:round;stroke-miterlimit:10;}
	.st4{fill:#FFAA54;}
	.st5{fill:#FF8A14;}
	.st6{fill:#FFB0CA;stroke:#45413C;stroke-linecap:round;stroke-linejoin:round;stroke-miterlimit:10;}
	.st7{fill:#FF87AF;stroke:#45413C;stroke-linecap:round;stroke-linejoin:round;stroke-miterlimit:10;}
	.st8{fill:#FFCC99;}
	.st9{fill:#FFFFFF;}
	.st10{fill:#F0F0F0;}
	.st11{fill:#BF8256;}
	.st12{fill:#915E3A;}
	.st13{fill:#DEA47A;}
	.st14{fill:#F0D5A8;}
	.st15{fill:#DEBB7E;}
	.st16{fill:#F7E5C6;}
	.st17{fill:#FF8A14;stroke:#45413C;stroke-linecap:round;stroke-linejoin:round;stroke-miterlimit:10;}
	.st18{fill:#FFF5E3;}
	.st19{fill:#FFF48C;}
	.st20{fill:#FFFACF;}
	.st21{fill:#FFFCE5;}
	.st22{fill:#FF87AF;}
	.st23{fill:#FFB0CA;}
	.st24{fill:#FFE500;stroke:#45413C;stroke-linecap:round;stroke-linejoin:round;stroke-miterlimit:10;}
	.st25{fill:#9CEB60;stroke:#45413C;stroke-linecap:round;stroke-linejoin:round;stroke-miterlimit:10;}
	.st26{fill:#FFFACF;stroke:#45413C;stroke-linecap:round;stroke-linejoin:round;stroke-miterlimit:10;}
	.st27{fill:#00F5BC;stroke:#45413C;stroke-linecap:round;stroke-linejoin:round;stroke-miterlimit:10;}
	.st28{fill:#BF8256;stroke:#45413C;stroke-linecap:round;stroke-linejoin:round;stroke-miterlimit:10;}
	.st29{fill:#FFE3CF;stroke:#45413C;stroke-linecap:round;stroke-linejoin:round;stroke-miterlimit:10;}
	.st30{fill:#FF6242;}
	.st31{fill:#FF866E;}
	.st32{fill:none;stroke:#E04122;stroke-linecap:round;stroke-linejoin:round;stroke-miterlimit:10;}
	.st33{fill:#FFFEF2;stroke:#45413C;stroke-linecap:round;stroke-linejoin:round;stroke-miterlimit:10;}
	.st34{fill:#FF6242;stroke:#45413C;stroke-linecap:round;stroke-linejoin:round;stroke-miterlimit:10;}
	.st35{fill:#FFA694;}
	.st36{fill:#FFFFFF;stroke:#45413C;stroke-linecap:round;stroke-linejoin:round;stroke-miterlimit:10;}
	.st37{fill:#FFFEF2;}
	.st38{fill:#FF6196;}
	.st39{fill:#B89558;}
	.st40{fill:none;stroke:#915E3A;stroke-linecap:round;stroke-linejoin:round;stroke-miterlimit:10;}
	.st41{fill:#DEBB7E;stroke:#45413C;stroke-linecap:round;stroke-linejoin:round;stroke-miterlimit:10;}
	.st42{fill:#6DD627;stroke:#45413C;stroke-linecap:round;stroke-linejoin:round;stroke-miterlimit:10;}
	.st43{fill:#E5F8FF;}
	.st44{fill:#E8F4FA;}
	.st45{fill:#E8F4FA;stroke:#45413C;stroke-linecap:round;stroke-linejoin:round;stroke-miterlimit:10;}
	.st46{fill:#FFCCDD;}
	.st47{fill:#E5F8FF;stroke:#45413C;stroke-linecap:round;stroke-linejoin:round;stroke-miterlimit:10;}
	.st48{fill:#00B8F0;stroke:#45413C;stroke-linecap:round;stroke-linejoin:round;stroke-miterlimit:10;}
	.st49{fill:#00B8F0;}
	.st50{fill:#4ACFFF;}
	.st51{fill:#E04122;}
	.st52{fill:#E04122;stroke:#45413C;stroke-linecap:round;stroke-linejoin:round;stroke-miterlimit:10;}
	.st53{fill:#87898C;}
	.st54{fill:#BDBEC0;}
	.st55{fill:#656769;}
	.st56{fill:#525252;}
	.st57{fill:#FFF48C;stroke:#45413C;stroke-linecap:round;stroke-linejoin:round;stroke-miterlimit:10;}
	.st58{fill:#6DD627;}
	.st59{fill:#EB6D00;}
	.st60{fill:#46B000;}
	.st61{fill:#80DDFF;}
	.st62{fill:#DAEDF7;}
	.st63{fill:#BF8DF2;stroke:#45413C;stroke-linecap:round;stroke-linejoin:round;stroke-miterlimit:10;}
	.st64{fill:#9F5AE5;stroke:#45413C;stroke-linecap:round;stroke-linejoin:round;stroke-miterlimit:10;}
	.st65{fill:#C8FFA1;}
	.st66{fill:#E4FFD1;}
	.st67{fill:#9CEB60;}
	.st68{fill:#E5FEFF;}
	.st69{fill:#B8ECFF;}
	.st70{fill:#E0E0E0;stroke:#45413C;stroke-linecap:round;stroke-linejoin:round;stroke-miterlimit:10;}
	.st71{fill:#E0E0E0;}
	.st72{fill:none;stroke:#4F4B45;stroke-linejoin:round;stroke-miterlimit:10;}
	.st73{fill:none;stroke:#4F4B45;stroke-linecap:round;stroke-linejoin:round;stroke-miterlimit:10;}
	.st74{fill:#E0366F;stroke:#45413C;stroke-linecap:round;stroke-linejoin:round;stroke-miterlimit:10;}
	.st75{fill:none;stroke:#45413C;stroke-miterlimit:10;}
	.st76{fill:#FF866E;stroke:#45413C;stroke-linecap:round;stroke-linejoin:round;stroke-miterlimit:10;}
	.st77{fill:#45413C;stroke:#45413C;stroke-linecap:round;stroke-linejoin:round;stroke-miterlimit:10;}
	.st78{fill:#9F5AE5;}
	.st79{fill:#803EC2;}
	.st80{fill:#803EC2;stroke:#45413C;stroke-linecap:round;stroke-linejoin:round;stroke-miterlimit:10;}
	.st81{fill:#BF8DF2;}
	.st82{fill:#FFAA54;stroke:#45413C;stroke-linecap:round;stroke-linejoin:round;stroke-miterlimit:10;}
	.st83{fill:none;stroke:#45413C;stroke-linejoin:round;stroke-miterlimit:10;}
	.st84{fill:#FFCCDD;stroke:#45413C;stroke-linecap:round;stroke-linejoin:round;stroke-miterlimit:10;}
	.st85{fill:#FF6196;stroke:#45413C;stroke-linecap:round;stroke-linejoin:round;stroke-miterlimit:10;}
	.st86{fill:#FFE5EE;}
	.st87{fill:#F7E5C6;stroke:#45413C;stroke-linecap:round;stroke-linejoin:round;stroke-miterlimit:10;}
	.st88{fill:#E5FFF9;}
	.st89{fill:none;stroke:#45413C;stroke-width:1.0064;stroke-linecap:round;stroke-linejoin:round;stroke-miterlimit:10;}
	.st90{fill:#4AEFF7;}
	.st91{fill:#A6FBFF;}
	.st92{fill:#E5FEFF;stroke:#45413C;stroke-linecap:round;stroke-linejoin:round;stroke-miterlimit:10;}
	.st93{fill:#46B000;stroke:#45413C;stroke-linecap:round;stroke-linejoin:round;stroke-miterlimit:10;}
	.st94{fill:#FFFFFF;stroke:#45413C;stroke-linejoin:round;stroke-miterlimit:10;}
	.st95{fill:#FFFFFF;stroke:#45413C;stroke-miterlimit:10;}
	.st96{fill:#009FD9;}
	.st97{fill:#00DFEB;}
	.st98{fill:#C0DCEB;stroke:#45413C;stroke-linecap:round;stroke-linejoin:round;stroke-miterlimit:10;}
	.st99{fill:#00DFEB;stroke:#45413C;stroke-linecap:round;stroke-linejoin:round;stroke-miterlimit:10;}
	.st100{fill:#FFE5EE;stroke:#45413C;stroke-linecap:round;stroke-linejoin:round;stroke-miterlimit:10;}
	.st101{fill:#8CA4B8;}
	.st102{fill:#ADC4D9;}
	.st103{fill:#656769;stroke:#45413C;stroke-linecap:round;stroke-linejoin:round;stroke-miterlimit:10;}
	.st104{fill:#F0F0F0;stroke:#45413C;stroke-linecap:round;stroke-linejoin:round;stroke-miterlimit:10;}
	.st105{fill:#C0DCEB;}
	.st106{fill:#45413C;}
	.st107{fill:#FFCABF;}
	.st108{fill:#87898C;stroke:#45413C;stroke-linecap:round;stroke-linejoin:round;stroke-miterlimit:10;}
	.st109{fill:#EBCB00;stroke:#45413C;stroke-linecap:round;stroke-linejoin:round;stroke-miterlimit:10;}</style>
  <circle
     cx="-2503.0818"
     cy="-2486.562"
     r="0"
     id="circle61"
     style="fill:#5e4aa6;stroke-width:1.97976351" />
  <g
     transform="matrix(7.4827141,0,0,7.4827141,-30.951341,-28.487871)"
     id="g69"
     style="fill:#5e4aa6;stroke-width:0.26458001">
    <circle
       cx="-330.38"
       cy="-328.5"
       r="0"
       id="circle63" />
    <circle
       cx="-39.462002"
       cy="6.3115001"
       r="0"
       id="circle65"
       style="fill-rule:evenodd" />
    <circle
       cx="-330.38"
       cy="-328.5"
       r="0"
       id="circle67"
       style="image-rendering:optimizeSpeed" />
  </g>
  <path
     inkscape:connector-curvature="0"
     d="M 56.83249,33.426605 56.090078,22.290436"
     style="clip-rule:evenodd;fill:none;fill-rule:evenodd;stroke:#86a1ff;stroke-width:1.46502495px"
     id="path4" />
  <path
     inkscape:connector-curvature="0"
     d="M 48.665965,40.108307 56.090078,22.290436"
     style="clip-rule:evenodd;fill:none;fill-rule:evenodd;stroke:#86a1ff;stroke-width:0.7523101px"
     id="path6" />
  <path
     inkscape:connector-curvature="0"
     d="M 49.408376,52.729299 48.665965,40.108307"
     style="clip-rule:evenodd;fill:none;fill-rule:evenodd;stroke:#86a1ff;stroke-width:0.7523101px"
     id="path8" />
  <path
     inkscape:connector-curvature="0"
     d="m 36.787384,50.502065 12.620992,2.227234"
     style="clip-rule:evenodd;fill:none;fill-rule:evenodd;stroke:#86a1ff;stroke-width:0.7523101px"
     id="path10" />
  <path
     inkscape:connector-curvature="0"
     d="M 28.630759,59.949497 18.969513,54.956533"
     style="clip-rule:evenodd;fill:none;fill-rule:evenodd;stroke:#86a1ff;stroke-width:1.46502495px"
     id="path12" />
  <path
     inkscape:connector-curvature="0"
     d="M 18.969513,54.956533 36.787384,50.502065"
     style="clip-rule:evenodd;fill:none;fill-rule:evenodd;stroke:#86a1ff;stroke-width:0.7523101px"
     id="path14" />
  <path
     inkscape:connector-curvature="0"
     d="M 10.830705,41.022958 17.48469,28.229726"
     style="clip-rule:evenodd;fill:none;fill-rule:evenodd;stroke:#86a1ff;stroke-width:0.7523101px"
     id="path16" />
  <path
     inkscape:connector-curvature="0"
     d="M 7.8828371,21.379744 14.901099,16.796592"
     style="clip-rule:evenodd;fill:none;fill-rule:evenodd;stroke:#86a1ff;stroke-width:1.46502495px"
     id="path18" />
  <path
     inkscape:connector-curvature="0"
     d="M 14.901099,16.796592 24.166392,5.2149758"
     style="clip-rule:evenodd;fill:none;fill-rule:evenodd;stroke:#86a1ff;stroke-width:1.46502495px"
     id="path20" />
  <path
     inkscape:connector-curvature="0"
     d="M 29.363271,19.32079 42.281228,12.193642"
     style="clip-rule:evenodd;fill:none;fill-rule:evenodd;stroke:#86a1ff;stroke-width:0.7523101px"
     id="path22" />
  <path
     inkscape:connector-curvature="0"
     d="M 23.960496,5.6109285 17.48469,28.229726"
     style="clip-rule:evenodd;fill:none;fill-rule:evenodd;stroke:#86a1ff;stroke-width:0.7523101px"
     id="path24" />
  <path
     inkscape:connector-curvature="0"
     d="M 7.8828371,21.379744 29.363271,19.32079"
     style="clip-rule:evenodd;fill:none;fill-rule:evenodd;stroke:#86a1ff;stroke-width:0.7523101px"
     id="path26" />
  <path
     inkscape:connector-curvature="0"
     d="M 42.407933,12.262934 35.302562,40.108307"
     style="clip-rule:evenodd;fill:none;fill-rule:evenodd;stroke:#eddbff;stroke-width:2.9498477px;stroke-opacity:1"
     id="path28" />
  <path
     inkscape:connector-curvature="0"
     d="M 41.631865,12.684623 14.901099,16.796592"
     style="clip-rule:evenodd;fill:none;fill-rule:evenodd;stroke:#d1dbff;stroke-width:2.9498477px"
     id="path30" />
  <path
     inkscape:connector-curvature="0"
     d="M 35.302562,40.108307 14.901099,16.796592"
     style="clip-rule:evenodd;fill:none;fill-rule:evenodd;stroke:#eddbff;stroke-width:2.9498477px;stroke-opacity:1"
     id="path32" />
  <path
     inkscape:connector-curvature="0"
     d="m 35.302562,40.108307 -6.671803,19.84119"
     style="clip-rule:evenodd;fill:none;fill-rule:evenodd;stroke:#fbdbff;stroke-width:2.21733522px;stroke-opacity:1"
     id="path34" />
  <path
     inkscape:connector-curvature="0"
     d="m 10.420894,41.547595 4.85636,-26.192271"
     style="clip-rule:evenodd;fill:none;fill-rule:evenodd;stroke:#ebdbff;stroke-width:2.21733522px;stroke-opacity:1"
     id="path36" />
  <path
     inkscape:connector-curvature="0"
     d="M 28.630759,59.949497 10.830705,41.022958"
     style="clip-rule:evenodd;fill:none;fill-rule:evenodd;stroke:#ffdbee;stroke-width:2.21733522px;stroke-opacity:1"
     id="path38" />
  <path
     inkscape:connector-curvature="0"
     d="M 49.408376,52.729299 28.630759,59.949497"
     style="clip-rule:evenodd;fill:none;fill-rule:evenodd;stroke:#ffdfcd;stroke-width:2.21733522px;stroke-opacity:1"
     id="path40" />
  <path
     inkscape:connector-curvature="0"
     d="M 56.83249,33.426605 49.408376,52.729299"
     style="clip-rule:evenodd;fill:none;fill-rule:evenodd;stroke:#ffdbee;stroke-width:2.21733522px;stroke-opacity:1"
     id="path42" />
  <path
     inkscape:connector-curvature="0"
     d="M 35.302562,40.108307 56.83249,33.426605"
     style="clip-rule:evenodd;fill:none;fill-rule:evenodd;stroke:#f5dbff;stroke-width:2.21733522px;stroke-opacity:1"
     id="path44" />
  <path
     inkscape:connector-curvature="0"
     d="M 42.42971,12.193642 56.83249,33.426605"
     style="clip-rule:evenodd;fill:none;fill-rule:evenodd;stroke:#ebdbff;stroke-width:2.21733522px;stroke-opacity:1"
     id="path46" />
  <path
     inkscape:connector-curvature="0"
     d="M 10.830705,41.022958 35.302562,40.108307"
     style="clip-rule:evenodd;fill:none;fill-rule:evenodd;stroke:#f5dbff;stroke-width:2.21733522px;stroke-opacity:1"
     id="path48" />
  <path
     inkscape:connector-curvature="0"
     d="M 5.481384,40.290445 18.969513,54.956533"
     style="clip-rule:evenodd;fill:none;fill-rule:evenodd;stroke:#86a1ff;stroke-width:1.46502495px"
     id="path50" />
  <path
     inkscape:connector-curvature="0"
     d="M 6.8731577,21.07882 5.8852557,40.288466"
     style="clip-rule:evenodd;fill:none;fill-rule:evenodd;stroke:#86a1ff;stroke-width:1.46502495px"
     id="path52" />
  <path
     inkscape:connector-curvature="0"
     d="M 24.166392,5.2149758 42.726675,7.4422097"
     style="clip-rule:evenodd;fill:none;fill-rule:evenodd;stroke:#86a1ff;stroke-width:1.46502495px"
     id="path54" />
  <path
     inkscape:connector-curvature="0"
     d="M 56.090078,22.290436 42.726675,7.4422097"
     style="clip-rule:evenodd;fill:none;fill-rule:evenodd;stroke:#86a1ff;stroke-width:1.46502495px"
     id="path56" />
  <path
     inkscape:connector-curvature="0"
     d="M 41.776388,12.213439 42.940489,6.4899435"
     style="clip-rule:evenodd;fill:none;fill-rule:evenodd;stroke:#86a1ff;stroke-width:1.46502495px"
     id="path58" />
  <path
     inkscape:connector-curvature="0"
     d="M 10.830705,41.022958 5.481384,40.290445"
     style="clip-rule:evenodd;fill:none;fill-rule:evenodd;stroke:#86a1ff;stroke-width:1.46502495px"
     id="path60" />
  <path
     inkscape:connector-curvature="0"
     d="m 24.166392,2.9877418 c -1.221514,0 -2.227234,1.0057199 -2.227234,2.227234 0,1.221514 1.00572,2.2272339 2.227234,2.2272339 1.221514,0 2.227234,-1.0057199 2.227234,-2.2272339 0,-1.2215141 -1.00572,-2.227234 -2.227234,-2.227234 z m 18.560283,2.9696453 c -0.815663,0 -1.484823,0.66916 -1.484823,1.4848226 0,0.8156626 0.66916,1.4848226 1.484823,1.4848226 0.815662,0 1.484822,-0.66916 1.484822,-1.4848226 0,-0.8156626 -0.66916,-1.4848226 -1.484822,-1.4848226 z m -0.372196,3.7120565 c -1.42543,0 -2.59745,1.1720204 -2.59745,2.5994294 0,1.42543 1.174,2.59745 2.59943,2.59745 1.42543,0 2.59745,-1.17202 2.59745,-2.59943 0,-1.425429 -1.174,-2.5974494 -2.59943,-2.5974494 z M 14.885261,14.123911 c -1.42543,0 -2.59745,1.17202 -2.59745,2.59943 0,1.42345 1.17202,2.597449 2.59745,2.597449 1.425429,0 2.599429,-1.173999 2.599429,-2.599429 0,-1.42543 -1.17202,-2.59745 -2.599429,-2.59745 z m 14.47801,3.712057 c -0.815662,0 -1.484823,0.66916 -1.484823,1.484822 0,0.815663 0.669161,1.484823 1.484823,1.484823 0.815663,0 1.484823,-0.66916 1.484823,-1.484823 0,-0.815662 -0.66916,-1.484822 -1.484823,-1.484822 z M 7.833343,19.32079 c -1.2215141,0 -2.2272339,1.00572 -2.2272339,2.227234 0,1.221514 1.0057198,2.227234 2.2272339,2.227234 1.2215141,0 2.227234,-1.00572 2.227234,-2.227234 0,-1.221514 -1.0057199,-2.227234 -2.227234,-2.227234 z m 48.256735,1.484823 c -0.815662,0 -1.484822,0.66916 -1.484822,1.484823 0,0.815662 0.66916,1.484822 1.484822,1.484822 0.815663,0 1.484823,-0.66916 1.484823,-1.484822 0,-0.815663 -0.66916,-1.484823 -1.484823,-1.484823 z M 17.48469,26.744904 c -0.815662,0 -1.484823,0.66916 -1.484823,1.484822 0,0.815663 0.669161,1.484823 1.484823,1.484823 0.815663,0 1.484823,-0.66916 1.484823,-1.484823 0,-0.815662 -0.66916,-1.484822 -1.484823,-1.484822 z m 39.3478,4.454467 c -1.221514,0 -2.227234,1.00572 -2.227234,2.227234 0,1.221514 1.00572,2.227234 2.227234,2.227234 1.221514,0 2.227234,-1.00572 2.227234,-2.227234 0,-1.221514 -1.00572,-2.227234 -2.227234,-2.227234 z m -21.529928,5.939291 c -1.629346,0 -2.969646,1.3403 -2.969646,2.969645 0,1.629345 1.3403,2.969645 2.969646,2.969645 1.629345,0 2.969645,-1.3403 2.969645,-2.969645 0,-1.629345 -1.3403,-2.969645 -2.969645,-2.969645 z M 5.6061091,38.623484 c -0.8156626,0 -1.4848226,0.669161 -1.4848226,1.484823 0,0.815663 0.66916,1.484823 1.4848226,1.484823 0.8156626,0 1.4848226,-0.66916 1.4848226,-1.484823 0,-0.815662 -0.66916,-1.484823 -1.4848226,-1.484823 z m 5.1968789,0 c -1.2215138,0 -2.2272337,1.00572 -2.2272337,2.227234 0,1.221515 1.0057199,2.227234 2.2272337,2.227234 1.221514,0 2.227234,-1.005719 2.227234,-2.227234 0,-1.221514 -1.00572,-2.227234 -2.227234,-2.227234 z m 37.862977,0 c -0.815662,0 -1.484822,0.669161 -1.484822,1.484823 0,0.815663 0.66916,1.484823 1.484822,1.484823 0.815663,0 1.484823,-0.66916 1.484823,-1.484823 0,-0.815662 -0.66916,-1.484823 -1.484823,-1.484823 z M 36.787384,49.017243 c -0.815662,0 -1.484822,0.66916 -1.484822,1.484822 0,0.815663 0.66916,1.484823 1.484822,1.484823 0.815663,0 1.484823,-0.66916 1.484823,-1.484823 0,-0.815662 -0.66916,-1.484822 -1.484823,-1.484822 z m 12.620992,1.484822 c -1.221514,0 -2.227233,1.00572 -2.227233,2.227234 0,1.221514 1.005719,2.227234 2.227233,2.227234 1.221515,0 2.227234,-1.00572 2.227234,-2.227234 0,-1.221514 -1.005719,-2.227234 -2.227234,-2.227234 z m -30.438863,2.969646 c -0.815663,0 -1.484823,0.66916 -1.484823,1.484822 0,0.815663 0.66916,1.484823 1.484823,1.484823 0.815662,0 1.484822,-0.66916 1.484822,-1.484823 0,-0.815662 -0.66916,-1.484822 -1.484822,-1.484822 z m 9.651347,4.454468 c -1.221514,0 -2.227234,1.005719 -2.227234,2.227234 0,1.221514 1.00572,2.227233 2.227234,2.227233 1.221514,0 2.227234,-1.005719 2.227234,-2.227233 0,-1.221515 -1.00572,-2.227234 -2.227234,-2.227234 z"
     style="clip-rule:evenodd;fill:#3f3688;fill-opacity:1;fill-rule:nonzero;stroke-width:1.97976351"
     id="path62" />
</svg>
